<?xml version="1.0" encoding="UTF-8" standalone="no"?>
<!DOCTYPE svg PUBLIC "-//W3C//DTD SVG 1.1//EN"
 "http://www.w3.org/Graphics/SVG/1.1/DTD/svg11.dtd">
<!-- Generated by graphviz version 2.47.0 (20210316.0004)
 -->
<!-- Title: dependencies Pages: 1 -->
<svg width="610pt" height="366pt"
 viewBox="0.00 0.00 610.00 366.00" xmlns="http://www.w3.org/2000/svg" xmlns:xlink="http://www.w3.org/1999/xlink">
<g id="graph0" class="graph" transform="scale(1 1) rotate(0) translate(4 362)">
<title>dependencies</title>
<polygon fill="white" stroke="transparent" points="-4,4 -4,-362 606,-362 606,4 -4,4"/>
<text text-anchor="start" x="280.01" y="-42.4" font-family="Times-12" font-weight="bold" font-size="14.00">Legend</text>
<polygon fill="#ffffb3" stroke="transparent" points="67,-10 67,-30 87,-30 87,-10 67,-10"/>
<text text-anchor="start" x="90.63" y="-15.4" font-family="Times-12" font-size="14.00"> &#160;Declarations</text>
<polygon fill="#8dd3c7" stroke="transparent" points="180,-10 180,-30 200,-30 200,-10 180,-10"/>
<text text-anchor="start" x="203.73" y="-15.4" font-family="Times-12" font-size="14.00"> &#160;Module</text>
<polygon fill="#80b1d3" stroke="transparent" points="266,-10 266,-30 286,-30 286,-10 266,-10"/>
<text text-anchor="start" x="289.78" y="-15.4" font-family="Times-12" font-size="14.00"> &#160;Bootstrap</text>
<polygon fill="#fdb462" stroke="transparent" points="363,-10 363,-30 383,-30 383,-10 363,-10"/>
<text text-anchor="start" x="386.67" y="-15.4" font-family="Times-12" font-size="14.00"> &#160;Providers</text>
<polygon fill="#fb8072" stroke="transparent" points="459,-10 459,-30 479,-30 479,-10 459,-10"/>
<text text-anchor="start" x="482.73" y="-15.4" font-family="Times-12" font-size="14.00"> &#160;Exports</text>
<g id="clust19" class="cluster">
<title>cluster_UsersModule</title>
<polygon fill="none" stroke="black" stroke-dasharray="1,5" points="8,-70 8,-282 156,-282 156,-70 8,-70"/>
</g>
<g id="clust24" class="cluster">
<title>cluster_UsersModule_providers</title>
<polygon fill="none" stroke="black" points="16,-78 16,-130 148,-130 148,-78 16,-78"/>
</g>
<g id="clust22" class="cluster">
<title>cluster_UsersModule_exports</title>
<polygon fill="none" stroke="black" points="32,-222 32,-274 136,-274 136,-222 32,-222"/>
</g>
<g id="clust7" class="cluster">
<title>cluster_AuthModule</title>
<polygon fill="none" stroke="black" stroke-dasharray="1,5" points="436,-138 436,-350 594,-350 594,-138 436,-138"/>
</g>
<g id="clust10" class="cluster">
<title>cluster_AuthModule_exports</title>
<polygon fill="none" stroke="black" points="452,-290 452,-342 562,-342 562,-290 452,-290"/>
</g>
<g id="clust12" class="cluster">
<title>cluster_AuthModule_providers</title>
<polygon fill="none" stroke="black" points="444,-146 444,-198 586,-198 586,-146 444,-146"/>
</g>
<g id="clust1" class="cluster">
<title>cluster_AppModule</title>
<polygon fill="none" stroke="black" stroke-dasharray="1,5" points="168,-214 168,-342 428,-342 428,-214 168,-214"/>
</g>
<g id="clust6" class="cluster">
<title>cluster_AppModule_providers</title>
<polygon fill="none" stroke="black" points="290,-222 290,-274 420,-274 420,-222 290,-222"/>
</g>
<g id="clust3" class="cluster">
<title>cluster_AppModule_imports</title>
<polygon fill="none" stroke="black" points="176,-222 176,-274 282,-274 282,-222 176,-222"/>
</g>
<g id="clust13" class="cluster">
<title>cluster_PostsModule</title>
<polygon fill="none" stroke="black" stroke-dasharray="1,5" points="164,-138 164,-206 316,-206 316,-138 164,-138"/>
</g>
<g id="clust18" class="cluster">
<title>cluster_PostsModule_providers</title>
<polygon fill="none" stroke="black" points="172,-146 172,-198 308,-198 308,-146 172,-146"/>
</g>
<!-- AuthModule -->
<g id="node1" class="node">
<title>AuthModule</title>
<polygon fill="#8dd3c7" stroke="black" points="550.55,-266 547.55,-270 526.55,-270 523.55,-266 463.45,-266 463.45,-230 550.55,-230 550.55,-266"/>
<text text-anchor="middle" x="507" y="-243.8" font-family="Times,serif" font-size="14.00">AuthModule</text>
</g>
<!-- AppModule -->
<g id="node4" class="node">
<title>AppModule</title>
<polygon fill="#8dd3c7" stroke="black" points="333.66,-334 330.66,-338 309.66,-338 306.66,-334 250.34,-334 250.34,-298 333.66,-298 333.66,-334"/>
<text text-anchor="middle" x="292" y="-311.8" font-family="Times,serif" font-size="14.00">AppModule</text>
</g>
<!-- AuthModule&#45;&gt;AppModule -->
<g id="edge1" class="edge">
<title>AuthModule&#45;&gt;AppModule</title>
<path fill="none" stroke="black" d="M463.3,-248C458.75,-248 455.74,-248 455.74,-248 455.74,-248 455.74,-316 455.74,-316 455.74,-316 343.74,-316 343.74,-316"/>
<polygon fill="black" stroke="black" points="343.74,-312.5 333.74,-316 343.74,-319.5 343.74,-312.5"/>
</g>
<!-- AuthServices  -->
<g id="node6" class="node">
<title>AuthServices </title>
<polygon fill="#fb8072" stroke="black" points="554.42,-334 459.58,-334 459.58,-298 554.42,-298 554.42,-334"/>
<text text-anchor="middle" x="507" y="-311.8" font-family="Times,serif" font-size="14.00">AuthServices </text>
</g>
<!-- AuthModule&#45;&gt;AuthServices  -->
<g id="edge5" class="edge">
<title>AuthModule&#45;&gt;AuthServices </title>
<path fill="none" stroke="black" stroke-dasharray="5,2" d="M507,-266.22C507,-266.22 507,-287.73 507,-287.73"/>
<polygon fill="black" stroke="black" points="503.5,-287.73 507,-297.73 510.5,-287.73 503.5,-287.73"/>
</g>
<!-- PostsModule -->
<g id="node2" class="node">
<title>PostsModule</title>
<polygon fill="#8dd3c7" stroke="black" points="273.61,-266 270.61,-270 249.61,-270 246.61,-266 184.39,-266 184.39,-230 273.61,-230 273.61,-266"/>
<text text-anchor="middle" x="229" y="-243.8" font-family="Times,serif" font-size="14.00">PostsModule</text>
</g>
<!-- PostsModule&#45;&gt;AppModule -->
<g id="edge2" class="edge">
<title>PostsModule&#45;&gt;AppModule</title>
<path fill="none" stroke="black" d="M261.86,-266.22C261.86,-266.22 261.86,-287.73 261.86,-287.73"/>
<polygon fill="black" stroke="black" points="258.36,-287.73 261.86,-297.73 265.36,-287.73 258.36,-287.73"/>
</g>
<!-- UsersModule -->
<g id="node3" class="node">
<title>UsersModule</title>
<polygon fill="#8dd3c7" stroke="black" points="133.92,-190 130.92,-194 109.92,-194 106.92,-190 42.08,-190 42.08,-154 133.92,-154 133.92,-190"/>
<text text-anchor="middle" x="88" y="-167.8" font-family="Times,serif" font-size="14.00">UsersModule</text>
</g>
<!-- UsersModule&#45;&gt;PostsModule -->
<g id="edge7" class="edge">
<title>UsersModule&#45;&gt;PostsModule</title>
<path fill="none" stroke="black" d="M134.11,-166C151.19,-166 166.48,-166 166.48,-166 166.48,-166 166.48,-248 166.48,-248 166.48,-248 174.23,-248 174.23,-248"/>
<polygon fill="black" stroke="black" points="174.23,-251.5 184.23,-248 174.23,-244.5 174.23,-251.5"/>
</g>
<!-- UsersModule&#45;&gt;AppModule -->
<g id="edge3" class="edge">
<title>UsersModule&#45;&gt;AppModule</title>
<path fill="none" stroke="black" d="M133.74,-178C144.73,-178 153.35,-178 153.35,-178 153.35,-178 153.35,-316 153.35,-316 153.35,-316 240.02,-316 240.02,-316"/>
<polygon fill="black" stroke="black" points="240.02,-319.5 250.02,-316 240.02,-312.5 240.02,-319.5"/>
</g>
<!-- UserService  -->
<g id="node9" class="node">
<title>UserService </title>
<polygon fill="#fb8072" stroke="black" points="127.9,-266 40.1,-266 40.1,-230 127.9,-230 127.9,-266"/>
<text text-anchor="middle" x="84" y="-243.8" font-family="Times,serif" font-size="14.00">UserService </text>
</g>
<!-- UsersModule&#45;&gt;UserService  -->
<g id="edge9" class="edge">
<title>UsersModule&#45;&gt;UserService </title>
<path fill="none" stroke="black" stroke-dasharray="5,2" d="M85.12,-190.01C85.12,-190.01 85.12,-219.85 85.12,-219.85"/>
<polygon fill="black" stroke="black" points="81.62,-219.85 85.12,-229.85 88.62,-219.85 81.62,-219.85"/>
</g>
<!-- AppService -->
<g id="node5" class="node">
<title>AppService</title>
<ellipse fill="#fdb462" stroke="black" cx="355" cy="-248" rx="56.74" ry="18"/>
<text text-anchor="middle" x="355" y="-243.8" font-family="Times,serif" font-size="14.00">AppService</text>
</g>
<!-- AppService&#45;&gt;AppModule -->
<g id="edge4" class="edge">
<title>AppService&#45;&gt;AppModule</title>
<path fill="none" stroke="black" d="M316.1,-261.11C316.1,-261.11 316.1,-287.79 316.1,-287.79"/>
<polygon fill="black" stroke="black" points="312.6,-287.79 316.1,-297.79 319.6,-287.79 312.6,-287.79"/>
</g>
<!-- AuthServices -->
<g id="node7" class="node">
<title>AuthServices</title>
<ellipse fill="#fdb462" stroke="black" cx="515" cy="-172" rx="63.12" ry="18"/>
<text text-anchor="middle" x="515" y="-167.8" font-family="Times,serif" font-size="14.00">AuthServices</text>
</g>
<!-- AuthServices&#45;&gt;AuthModule -->
<g id="edge6" class="edge">
<title>AuthServices&#45;&gt;AuthModule</title>
<path fill="none" stroke="black" d="M507,-190.01C507,-190.01 507,-219.85 507,-219.85"/>
<polygon fill="black" stroke="black" points="503.5,-219.85 507,-229.85 510.5,-219.85 503.5,-219.85"/>
</g>
<!-- PostsService -->
<g id="node8" class="node">
<title>PostsService</title>
<ellipse fill="#fdb462" stroke="black" cx="240" cy="-172" rx="60.27" ry="18"/>
<text text-anchor="middle" x="240" y="-167.8" font-family="Times,serif" font-size="14.00">PostsService</text>
</g>
<!-- PostsService&#45;&gt;PostsModule -->
<g id="edge8" class="edge">
<title>PostsService&#45;&gt;PostsModule</title>
<path fill="none" stroke="black" d="M229,-190.01C229,-190.01 229,-219.85 229,-219.85"/>
<polygon fill="black" stroke="black" points="225.5,-219.85 229,-229.85 232.5,-219.85 225.5,-219.85"/>
</g>
<!-- UserService -->
<g id="node10" class="node">
<title>UserService</title>
<ellipse fill="#fdb462" stroke="black" cx="82" cy="-104" rx="58.44" ry="18"/>
<text text-anchor="middle" x="82" y="-99.8" font-family="Times,serif" font-size="14.00">UserService</text>
</g>
<!-- UserService&#45;&gt;UsersModule -->
<g id="edge10" class="edge">
<title>UserService&#45;&gt;UsersModule</title>
<path fill="none" stroke="black" d="M88,-122.22C88,-122.22 88,-143.73 88,-143.73"/>
<polygon fill="black" stroke="black" points="84.5,-143.73 88,-153.73 91.5,-143.73 84.5,-143.73"/>
</g>
</g>
</svg>
